<?xml version="1.0" encoding="UTF-8"?>
<svg id="Layer_2" data-name="Layer 2" xmlns="http://www.w3.org/2000/svg" viewBox="0 0 357.79 153.61">
  <defs>
    <style>
      .cls-1 {
        fill: #606eb3;
      }

      .cls-2 {
        fill: #87cba2;
      }

      .cls-3 {
        fill: #fff;
      }

      .cls-4 {
        fill: #1f2a5a;
      }

      .cls-5 {
        fill: #6aaec0;
      }
    </style>
  </defs>
  <g id="Layer_1-2" data-name="Layer 1">
    <g>
      <g>
        <path class="cls-1" d="M220.87,41.98c0,9.63-3.24,18.5-8.7,25.58-5.62-6.9-11.51-13.58-17.62-20.05,7.34-6.68,15.37-13.09,24.04-19.21,1.48,4.29,2.28,8.89,2.28,13.67Z"/>
        <path class="cls-5" d="M218.59,28.31c-8.66,6.11-16.69,12.53-24.04,19.21-4.98-5.26-10.16-10.43-15.52-15.49,8.3-7.83,17.04-15.41,26.22-22.72,6.07,4.91,10.75,11.47,13.34,19Z"/>
        <path class="cls-1" d="M194.55,47.52h0c-5.58,5.07-10.76,10.3-15.52,15.67-4.76-5.37-9.94-10.6-15.52-15.67,4.98-5.26,10.16-10.43,15.52-15.49,5.36,5.06,10.54,10.23,15.52,15.49Z"/>
        <path class="cls-1" d="M193.23,81.45c-8.78,3.3-19.64,3.33-28.44.09.39-.6.8-1.19,1.21-1.78,4-5.78,8.37-11.31,13.04-16.57,5.12,5.77,9.89,11.86,14.2,18.27Z"/>
        <path class="cls-4" d="M212.17,67.57c-4.82,6.27-11.38,11.13-18.95,13.88-4.3-6.41-9.08-12.49-14.2-18.27,4.76-5.37,9.94-10.6,15.52-15.67,6.11,6.47,12,13.15,17.62,20.05Z"/>
        <path class="cls-4" d="M179.03,63.19c-4.67,5.26-9.04,10.78-13.04,16.57-.41.59-.81,1.18-1.21,1.78-7.6-2.71-14.18-7.54-19.04-13.78,5.66-6.97,11.6-13.71,17.77-20.24,5.58,5.07,10.76,10.3,15.52,15.67Z"/>
        <path class="cls-1" d="M163.51,47.52c-6.17,6.52-12.11,13.27-17.77,20.23-8.47-10.42-11.28-26.65-6.5-39.61,8.75,6.17,16.86,12.64,24.27,19.38Z"/>
        <path class="cls-5" d="M179.04,32.03c-5.37,5.06-10.54,10.23-15.52,15.49-7.41-6.74-15.52-13.21-24.27-19.38,2.63-7.52,7.33-14.07,13.43-18.95,9.23,7.35,18.02,14.97,26.36,22.84Z"/>
        <path class="cls-2" d="M205.25,9.31c-9.17,7.31-17.92,14.89-26.22,22.72-8.34-7.87-17.14-15.49-26.36-22.84,7.18-5.75,16.3-9.19,26.22-9.19s19.16,3.49,26.36,9.31Z"/>
        <circle class="cls-3" cx="179.01" cy="47.4" r="3.82"/>
        <circle class="cls-3" cx="194.55" cy="32.03" r="3.82"/>
        <circle class="cls-3" cx="179.01" cy="16.93" r="3.82"/>
        <circle class="cls-3" cx="163.51" cy="32.13" r="3.82"/>
      </g>
      <g>
        <path class="cls-4" d="M63.08,100.3v22.29h-5.43v-22.29h5.43Z"/>
        <path class="cls-4" d="M82.78,106.7c1.24,1.34,1.86,3.19,1.86,5.54v10.35h-5.4v-9.62c0-1.19-.31-2.11-.92-2.76-.61-.66-1.44-.98-2.48-.98s-1.86.33-2.48.98c-.61.66-.92,1.58-.92,2.76v9.62h-5.43v-17.71h5.43v2.35c.55-.78,1.29-1.4,2.22-1.86s1.98-.68,3.14-.68c2.07,0,3.73.67,4.97,2.02Z"/>
        <path class="cls-4" d="M88.46,108.9c.75-1.38,1.8-2.43,3.14-3.17,1.34-.74,2.88-1.11,4.62-1.11,2.22,0,4.08.58,5.57,1.75s2.47,2.8,2.94,4.92h-5.78c-.49-1.35-1.43-2.03-2.83-2.03-1,0-1.79.39-2.38,1.16s-.89,1.88-.89,3.32.3,2.54.89,3.32c.59.77,1.39,1.16,2.38,1.16,1.4,0,2.34-.68,2.83-2.03h5.78c-.47,2.07-1.45,3.7-2.95,4.89s-3.35,1.78-5.56,1.78c-1.74,0-3.28-.37-4.62-1.11-1.34-.74-2.39-1.8-3.14-3.17-.75-1.37-1.13-2.98-1.13-4.82s.38-3.45,1.13-4.83Z"/>
        <path class="cls-4" d="M113.05,99.09v23.49h-5.43v-23.49h5.43Z"/>
        <path class="cls-4" d="M134.48,104.87v17.71h-5.43v-2.41c-.55.78-1.3,1.41-2.24,1.89-.94.48-1.98.71-3.13.71-1.35,0-2.55-.3-3.59-.9-1.04-.6-1.84-1.48-2.41-2.62-.57-1.14-.86-2.49-.86-4.03v-10.35h5.4v9.62c0,1.19.31,2.11.92,2.76.61.66,1.44.98,2.48.98s1.89-.33,2.51-.98c.61-.66.92-1.58.92-2.76v-9.62h5.43Z"/>
        <path class="cls-4" d="M141.46,122.05c-1.21-.53-2.16-1.25-2.86-2.17-.7-.92-1.09-1.95-1.17-3.09h5.37c.06.61.35,1.11.86,1.49.51.38,1.13.57,1.87.57.68,0,1.2-.13,1.57-.4.37-.26.56-.61.56-1.03,0-.51-.26-.88-.79-1.13-.53-.24-1.39-.51-2.57-.81-1.27-.3-2.33-.61-3.17-.94s-1.58-.85-2.19-1.56-.92-1.67-.92-2.87c0-1.02.28-1.94.84-2.78.56-.84,1.39-1.5,2.48-1.98,1.09-.49,2.39-.73,3.89-.73,2.22,0,3.97.55,5.25,1.65,1.28,1.1,2.02,2.56,2.21,4.38h-5.02c-.08-.61-.35-1.1-.81-1.46-.46-.36-1.05-.54-1.79-.54-.64,0-1.12.12-1.46.37-.34.24-.51.58-.51,1,0,.51.27.89.81,1.14s1.38.51,2.52.76c1.31.34,2.38.67,3.21,1s1.55.86,2.17,1.59c.62.73.95,1.71.97,2.94,0,1.04-.29,1.96-.87,2.78-.58.82-1.42,1.46-2.51,1.92-1.09.46-2.35.7-3.79.7-1.54,0-2.92-.26-4.13-.79Z"/>
        <path class="cls-4" d="M156.5,102.19c-.6-.56-.91-1.25-.91-2.08s.3-1.55.91-2.11c.6-.56,1.38-.84,2.33-.84s1.7.28,2.3.84c.6.56.91,1.27.91,2.11s-.3,1.52-.91,2.08c-.6.56-1.37.84-2.3.84s-1.73-.28-2.33-.84ZM161.53,104.87v17.71h-5.43v-17.71h5.43Z"/>
        <path class="cls-4" d="M173.43,117.51l3.84-12.63h5.78l-6.29,17.71h-6.7l-6.29-17.71h5.81l3.84,12.63Z"/>
        <path class="cls-4" d="M201.94,115.03h-12.29c.08,1.1.44,1.94,1.06,2.52.62.58,1.39.87,2.3.87,1.35,0,2.3-.57,2.83-1.71h5.78c-.3,1.16-.83,2.21-1.6,3.14-.77.93-1.74,1.66-2.9,2.19-1.17.53-2.47.79-3.91.79-1.74,0-3.28-.37-4.63-1.11-1.36-.74-2.41-1.8-3.17-3.17-.76-1.37-1.14-2.98-1.14-4.82s.38-3.45,1.13-4.83c.75-1.38,1.8-2.43,3.16-3.17,1.35-.74,2.91-1.11,4.67-1.11s3.24.36,4.57,1.08c1.33.72,2.38,1.75,3.13,3.08.75,1.33,1.13,2.89,1.13,4.67,0,.51-.03,1.04-.1,1.59ZM196.48,112.01c0-.93-.32-1.67-.95-2.22s-1.43-.83-2.38-.83-1.68.27-2.3.79c-.62.53-1.01,1.28-1.16,2.25h6.79Z"/>
        <path class="cls-4" d="M230.13,100.3v22.29h-5.43v-13.36l-4.98,13.36h-4.38l-5.02-13.4v13.4h-5.43v-22.29h6.41l6.25,15.43,6.19-15.43h6.38Z"/>
        <path class="cls-4" d="M234.44,102.19c-.6-.56-.91-1.25-.91-2.08s.3-1.55.91-2.11c.6-.56,1.38-.84,2.33-.84s1.7.28,2.3.84c.6.56.91,1.27.91,2.11s-.3,1.52-.91,2.08c-.6.56-1.37.84-2.3.84s-1.73-.28-2.33-.84ZM239.47,104.87v17.71h-5.43v-17.71h5.43Z"/>
        <path class="cls-4" d="M259.17,106.7c1.24,1.34,1.86,3.19,1.86,5.54v10.35h-5.4v-9.62c0-1.19-.31-2.11-.92-2.76-.61-.66-1.44-.98-2.48-.98s-1.86.33-2.48.98c-.61.66-.92,1.58-.92,2.76v9.62h-5.43v-17.71h5.43v2.35c.55-.78,1.29-1.4,2.22-1.86s1.98-.68,3.14-.68c2.07,0,3.73.67,4.97,2.02Z"/>
        <path class="cls-4" d="M264.75,108.9c.69-1.38,1.62-2.43,2.81-3.17,1.18-.74,2.51-1.11,3.97-1.11,1.16,0,2.23.24,3.19.73.96.49,1.72,1.14,2.27,1.97v-8.22h5.43v23.49h-5.43v-2.54c-.51.85-1.23,1.52-2.17,2.03s-2.04.76-3.29.76c-1.46,0-2.78-.38-3.97-1.13-1.19-.75-2.12-1.82-2.81-3.21-.69-1.39-1.03-2.99-1.03-4.81s.34-3.42,1.03-4.79ZM275.87,110.52c-.75-.78-1.67-1.17-2.75-1.17s-2,.39-2.75,1.16c-.75.77-1.13,1.84-1.13,3.19s.38,2.43,1.13,3.22c.75.79,1.67,1.19,2.75,1.19s2-.39,2.75-1.17c.75-.78,1.13-1.85,1.13-3.21s-.38-2.42-1.13-3.21Z"/>
        <path class="cls-4" d="M289.44,122.05c-1.21-.53-2.16-1.25-2.86-2.17-.7-.92-1.09-1.95-1.17-3.09h5.37c.06.61.35,1.11.86,1.49.51.38,1.13.57,1.87.57.68,0,1.2-.13,1.57-.4.37-.26.56-.61.56-1.03,0-.51-.26-.88-.79-1.13-.53-.24-1.39-.51-2.57-.81-1.27-.3-2.33-.61-3.17-.94s-1.58-.85-2.19-1.56-.92-1.67-.92-2.87c0-1.02.28-1.94.84-2.78.56-.84,1.39-1.5,2.48-1.98,1.09-.49,2.39-.73,3.89-.73,2.22,0,3.97.55,5.25,1.65,1.28,1.1,2.02,2.56,2.21,4.38h-5.02c-.08-.61-.35-1.1-.81-1.46-.46-.36-1.05-.54-1.79-.54-.64,0-1.12.12-1.46.37-.34.24-.51.58-.51,1,0,.51.27.89.81,1.14s1.38.51,2.52.76c1.31.34,2.38.67,3.21,1s1.55.86,2.17,1.59c.62.73.95,1.71.97,2.94,0,1.04-.29,1.96-.87,2.78-.58.82-1.42,1.46-2.51,1.92-1.09.46-2.35.7-3.79.7-1.54,0-2.92-.26-4.13-.79Z"/>
      </g>
      <g>
        <path class="cls-4" d="M1.93,146.33h5.16v1.57H0v-14.75h1.93v13.19Z"/>
        <path class="cls-4" d="M19.66,142.81h-9.27c.07,1.14.46,2.04,1.17,2.68.71.64,1.58.96,2.59.96.83,0,1.53-.19,2.08-.58.56-.39.95-.91,1.17-1.56h2.07c-.31,1.12-.93,2.02-1.86,2.72-.93.7-2.09,1.05-3.47,1.05-1.1,0-2.08-.25-2.95-.74-.87-.49-1.55-1.2-2.04-2.11-.49-.91-.74-1.96-.74-3.16s.24-2.25.72-3.15c.48-.9,1.15-1.6,2.02-2.08.87-.49,1.87-.73,2.99-.73s2.07.24,2.92.72,1.5,1.14,1.96,1.98c.46.84.69,1.79.69,2.85,0,.37-.02.76-.06,1.16ZM17.25,139.35c-.33-.53-.77-.93-1.32-1.21-.56-.28-1.17-.41-1.85-.41-.97,0-1.8.31-2.49.93s-1.08,1.48-1.17,2.58h7.32c0-.73-.16-1.37-.49-1.89Z"/>
        <path class="cls-4" d="M22.27,138.93c.48-.9,1.14-1.59,1.98-2.08s1.77-.74,2.8-.74,1.9.22,2.65.66,1.3.99,1.67,1.65v-2.12h1.95v11.6h-1.95v-2.16c-.38.68-.95,1.24-1.7,1.68-.76.44-1.63.67-2.64.67s-1.96-.25-2.79-.76c-.83-.51-1.49-1.22-1.97-2.14-.48-.92-.72-1.96-.72-3.13s.24-2.23.72-3.12ZM30.84,139.79c-.35-.65-.83-1.15-1.43-1.49-.6-.35-1.26-.52-1.98-.52s-1.38.17-1.97.51c-.59.34-1.07.83-1.42,1.48-.35.65-.53,1.41-.53,2.29s.18,1.66.53,2.32c.35.66.83,1.16,1.42,1.5.59.35,1.25.52,1.97.52s1.38-.17,1.98-.52,1.08-.85,1.43-1.5c.35-.66.53-1.42.53-2.3s-.18-1.64-.53-2.29Z"/>
        <path class="cls-4" d="M39.95,136.63c.63-.37,1.39-.55,2.3-.55v1.99h-.51c-2.16,0-3.24,1.17-3.24,3.51v6.31h-1.93v-11.6h1.93v1.88c.34-.66.82-1.18,1.45-1.54Z"/>
        <path class="cls-4" d="M53.55,137.36c.87.85,1.31,2.08,1.31,3.69v6.84h-1.9v-6.56c0-1.16-.29-2.04-.87-2.66-.58-.61-1.37-.92-2.37-.92s-1.82.32-2.42.95-.9,1.56-.9,2.77v6.41h-1.93v-11.6h1.93v1.65c.38-.59.9-1.05,1.56-1.38.66-.32,1.38-.49,2.17-.49,1.41,0,2.55.43,3.43,1.28Z"/>
        <path class="cls-4" d="M58.08,134.03c-.25-.25-.38-.56-.38-.93s.13-.68.38-.93.56-.38.93-.38.65.13.9.38c.25.25.37.56.37.93s-.12.68-.37.93c-.25.25-.55.38-.9.38s-.68-.13-.93-.38ZM59.94,136.3v11.6h-1.93v-11.6h1.93Z"/>
        <path class="cls-4" d="M72.3,137.36c.87.85,1.31,2.08,1.31,3.69v6.84h-1.9v-6.56c0-1.16-.29-2.04-.87-2.66-.58-.61-1.37-.92-2.37-.92s-1.82.32-2.42.95-.9,1.56-.9,2.77v6.41h-1.93v-11.6h1.93v1.65c.38-.59.9-1.05,1.56-1.38.66-.32,1.38-.49,2.17-.49,1.41,0,2.55.43,3.43,1.28Z"/>
        <path class="cls-4" d="M84.18,136.76c.75.44,1.32.99,1.68,1.65v-2.12h1.95v11.85c0,1.06-.23,2-.68,2.83-.45.83-1.1,1.47-1.94,1.94-.84.47-1.82.7-2.93.7-1.52,0-2.79-.36-3.81-1.08-1.02-.72-1.62-1.7-1.8-2.94h1.91c.21.71.65,1.27,1.31,1.7.66.43,1.46.65,2.39.65,1.06,0,1.92-.33,2.59-1,.67-.66,1-1.59,1-2.79v-2.43c-.38.68-.95,1.24-1.69,1.69-.75.45-1.62.68-2.62.68s-1.96-.25-2.8-.76-1.5-1.22-1.98-2.14c-.48-.92-.72-1.96-.72-3.13s.24-2.23.72-3.12c.48-.9,1.14-1.59,1.98-2.08s1.77-.74,2.8-.74,1.88.22,2.63.66ZM85.34,139.79c-.35-.65-.83-1.15-1.43-1.49-.6-.35-1.26-.52-1.98-.52s-1.38.17-1.97.51c-.59.34-1.07.83-1.42,1.48-.35.65-.53,1.41-.53,2.29s.18,1.66.53,2.32c.35.66.83,1.16,1.42,1.5.59.35,1.25.52,1.97.52s1.38-.17,1.98-.52,1.08-.85,1.43-1.5c.35-.66.53-1.42.53-2.3s-.18-1.64-.53-2.29Z"/>
        <path class="cls-4" d="M96.98,136.62c.65-1.15,1.53-2.05,2.66-2.7s2.37-.97,3.74-.97c1.61,0,3.01.39,4.21,1.16s2.07,1.88,2.62,3.3h-2.31c-.41-.89-1-1.57-1.77-2.05-.77-.48-1.69-.72-2.76-.72s-1.95.24-2.77.72-1.46,1.16-1.93,2.04-.7,1.92-.7,3.1.23,2.2.7,3.08,1.11,1.56,1.93,2.04,1.74.72,2.77.72,1.99-.24,2.76-.71c.77-.47,1.36-1.15,1.77-2.04h2.31c-.55,1.41-1.42,2.5-2.62,3.27-1.2.77-2.6,1.15-4.21,1.15-1.37,0-2.61-.32-3.74-.96-1.12-.64-2.01-1.53-2.66-2.68-.65-1.14-.97-2.43-.97-3.87s.32-2.73.97-3.88Z"/>
        <path class="cls-4" d="M115.17,147.34c-.88-.49-1.57-1.2-2.07-2.11s-.75-1.96-.75-3.16.26-2.23.77-3.14c.51-.91,1.22-1.61,2.11-2.1.89-.49,1.88-.73,2.98-.73s2.1.24,2.98.73c.89.49,1.59,1.18,2.11,2.08.51.9.77,1.95.77,3.15s-.26,2.25-.79,3.16-1.25,1.61-2.15,2.11c-.9.49-1.9.74-3,.74s-2.07-.25-2.95-.74ZM120.07,145.9c.61-.32,1.1-.81,1.47-1.46.37-.65.56-1.44.56-2.37s-.18-1.72-.55-2.37c-.37-.65-.85-1.13-1.44-1.45s-1.24-.48-1.93-.48-1.35.16-1.94.48c-.59.32-1.06.8-1.41,1.45-.35.65-.53,1.44-.53,2.37s.17,1.74.52,2.39c.34.65.81,1.13,1.39,1.45.58.32,1.21.48,1.91.48s1.34-.16,1.95-.49Z"/>
        <path class="cls-4" d="M128.54,132.23v15.66h-1.93v-15.66h1.93Z"/>
        <path class="cls-4" d="M133.74,132.23v15.66h-1.93v-15.66h1.93Z"/>
        <path class="cls-4" d="M147.54,142.81h-9.27c.07,1.14.46,2.04,1.17,2.68.71.64,1.58.96,2.59.96.83,0,1.53-.19,2.08-.58.56-.39.95-.91,1.17-1.56h2.07c-.31,1.12-.93,2.02-1.86,2.72-.93.7-2.09,1.05-3.47,1.05-1.1,0-2.08-.25-2.95-.74-.87-.49-1.55-1.2-2.04-2.11-.49-.91-.74-1.96-.74-3.16s.24-2.25.72-3.15c.48-.9,1.15-1.6,2.02-2.08.87-.49,1.87-.73,2.99-.73s2.07.24,2.92.72,1.5,1.14,1.96,1.98c.46.84.69,1.79.69,2.85,0,.37-.02.76-.06,1.16ZM145.13,139.35c-.33-.53-.77-.93-1.32-1.21-.56-.28-1.17-.41-1.85-.41-.97,0-1.8.31-2.49.93s-1.08,1.48-1.17,2.58h7.32c0-.73-.16-1.37-.49-1.89Z"/>
        <path class="cls-4" d="M150.14,138.93c.48-.9,1.15-1.59,2-2.08s1.83-.74,2.93-.74c1.42,0,2.6.35,3.52,1.04s1.53,1.65,1.83,2.88h-2.07c-.2-.71-.58-1.26-1.15-1.67s-1.28-.61-2.13-.61c-1.1,0-1.99.38-2.67,1.13-.68.76-1.02,1.82-1.02,3.21s.34,2.48,1.02,3.24c.68.76,1.57,1.14,2.67,1.14.85,0,1.55-.2,2.12-.59.56-.39.95-.96,1.16-1.69h2.07c-.31,1.18-.93,2.13-1.86,2.85-.93.71-2.1,1.07-3.49,1.07-1.1,0-2.08-.25-2.93-.74-.85-.49-1.52-1.19-2-2.1-.48-.9-.72-1.96-.72-3.17s.24-2.25.72-3.14Z"/>
        <path class="cls-4" d="M165.34,137.88v6.84c0,.56.12.96.36,1.2.24.23.66.35,1.25.35h1.42v1.63h-1.74c-1.07,0-1.88-.25-2.41-.74-.54-.49-.8-1.3-.8-2.43v-6.84h-1.5v-1.59h1.5v-2.92h1.93v2.92h3.03v1.59h-3.03Z"/>
        <path class="cls-4" d="M170.76,134.03c-.25-.25-.38-.56-.38-.93s.13-.68.38-.93.56-.38.93-.38.65.13.9.38c.25.25.37.56.37.93s-.12.68-.37.93c-.25.25-.55.38-.9.38s-.68-.13-.93-.38ZM172.62,136.3v11.6h-1.93v-11.6h1.93Z"/>
        <path class="cls-4" d="M180.22,146.12l3.6-9.82h2.05l-4.55,11.6h-2.24l-4.55-11.6h2.07l3.62,9.82Z"/>
        <path class="cls-4" d="M198.29,142.81h-9.27c.07,1.14.46,2.04,1.17,2.68.71.64,1.58.96,2.59.96.83,0,1.53-.19,2.08-.58.56-.39.95-.91,1.17-1.56h2.07c-.31,1.12-.93,2.02-1.86,2.72-.93.7-2.09,1.05-3.47,1.05-1.1,0-2.08-.25-2.95-.74-.87-.49-1.55-1.2-2.04-2.11-.49-.91-.74-1.96-.74-3.16s.24-2.25.72-3.15c.48-.9,1.15-1.6,2.02-2.08.87-.49,1.87-.73,2.99-.73s2.07.24,2.92.72,1.5,1.14,1.96,1.98c.46.84.69,1.79.69,2.85,0,.37-.02.76-.06,1.16ZM195.88,139.35c-.33-.53-.77-.93-1.32-1.21-.56-.28-1.17-.41-1.85-.41-.97,0-1.8.31-2.49.93s-1.08,1.48-1.17,2.58h7.32c0-.73-.16-1.37-.49-1.89Z"/>
        <path class="cls-4" d="M215.15,140.52c-.84.81-2.12,1.22-3.84,1.22h-2.84v6.16h-1.93v-14.75h4.76c1.67,0,2.93.4,3.8,1.21.87.8,1.3,1.84,1.3,3.11s-.42,2.25-1.26,3.06ZM213.68,139.45c.51-.47.76-1.13.76-1.99,0-1.82-1.04-2.73-3.13-2.73h-2.84v5.42h2.84c1.07,0,1.86-.23,2.37-.7Z"/>
        <path class="cls-4" d="M222.18,136.63c.63-.37,1.39-.55,2.3-.55v1.99h-.51c-2.16,0-3.24,1.17-3.24,3.51v6.31h-1.93v-11.6h1.93v1.88c.34-.66.82-1.18,1.45-1.54Z"/>
        <path class="cls-4" d="M226.76,134.03c-.25-.25-.38-.56-.38-.93s.13-.68.38-.93.56-.38.93-.38.65.13.9.38c.25.25.37.56.37.93s-.12.68-.37.93c-.25.25-.55.38-.9.38s-.68-.13-.93-.38ZM228.62,136.3v11.6h-1.93v-11.6h1.93Z"/>
        <path class="cls-4" d="M236.22,146.12l3.6-9.82h2.05l-4.55,11.6h-2.24l-4.55-11.6h2.07l3.62,9.82Z"/>
        <path class="cls-4" d="M243.78,138.93c.48-.9,1.14-1.59,1.98-2.08s1.77-.74,2.8-.74,1.9.22,2.65.66,1.3.99,1.67,1.65v-2.12h1.95v11.6h-1.95v-2.16c-.38.68-.95,1.24-1.7,1.68-.76.44-1.63.67-2.64.67s-1.96-.25-2.79-.76c-.83-.51-1.49-1.22-1.97-2.14-.48-.92-.72-1.96-.72-3.13s.24-2.23.72-3.12ZM252.35,139.79c-.35-.65-.83-1.15-1.43-1.49-.6-.35-1.26-.52-1.98-.52s-1.38.17-1.97.51c-.59.34-1.07.83-1.42,1.48-.35.65-.53,1.41-.53,2.29s.18,1.66.53,2.32c.35.66.83,1.16,1.42,1.5.59.35,1.25.52,1.97.52s1.38-.17,1.98-.52,1.08-.85,1.43-1.5c.35-.66.53-1.42.53-2.3s-.18-1.64-.53-2.29Z"/>
        <path class="cls-4" d="M260.43,137.88v6.84c0,.56.12.96.36,1.2.24.23.66.35,1.25.35h1.42v1.63h-1.74c-1.07,0-1.88-.25-2.41-.74-.54-.49-.8-1.3-.8-2.43v-6.84h-1.5v-1.59h1.5v-2.92h1.93v2.92h3.03v1.59h-3.03Z"/>
        <path class="cls-4" d="M276.31,142.81h-9.27c.07,1.14.46,2.04,1.17,2.68.71.64,1.58.96,2.59.96.83,0,1.53-.19,2.08-.58.56-.39.95-.91,1.17-1.56h2.07c-.31,1.12-.93,2.02-1.86,2.72-.93.7-2.09,1.05-3.47,1.05-1.1,0-2.08-.25-2.95-.74-.87-.49-1.55-1.2-2.04-2.11-.49-.91-.74-1.96-.74-3.16s.24-2.25.72-3.15c.48-.9,1.15-1.6,2.02-2.08.87-.49,1.87-.73,2.99-.73s2.07.24,2.92.72,1.5,1.14,1.96,1.98c.46.84.69,1.79.69,2.85,0,.37-.02.76-.06,1.16ZM273.89,139.35c-.33-.53-.77-.93-1.32-1.21-.56-.28-1.17-.41-1.85-.41-.97,0-1.8.31-2.49.93s-1.08,1.48-1.17,2.58h7.32c0-.73-.16-1.37-.49-1.89Z"/>
        <path class="cls-4" d="M286.49,146.33h5.16v1.57h-7.09v-14.75h1.93v13.19Z"/>
        <path class="cls-4" d="M293.77,134.03c-.25-.25-.38-.56-.38-.93s.13-.68.38-.93.56-.38.93-.38.65.13.9.38c.25.25.37.56.37.93s-.12.68-.37.93c-.25.25-.55.38-.9.38s-.68-.13-.93-.38ZM295.63,136.3v11.6h-1.93v-11.6h1.93Z"/>
        <path class="cls-4" d="M315.27,136.64c.71.37,1.26.93,1.67,1.68s.61,1.66.61,2.73v6.84h-1.91v-6.56c0-1.16-.29-2.04-.86-2.66-.57-.61-1.34-.92-2.32-.92s-1.8.32-2.39.96c-.59.64-.89,1.57-.89,2.78v6.39h-1.91v-6.56c0-1.16-.29-2.04-.86-2.66-.57-.61-1.34-.92-2.32-.92s-1.8.32-2.39.96c-.59.64-.89,1.57-.89,2.78v6.39h-1.93v-11.6h1.93v1.67c.38-.61.89-1.07,1.53-1.4.64-.32,1.35-.49,2.13-.49.97,0,1.83.22,2.58.66.75.44,1.3,1.08,1.67,1.93.32-.82.86-1.45,1.61-1.91.75-.45,1.58-.68,2.5-.68s1.71.19,2.41.56Z"/>
        <path class="cls-4" d="M320.77,134.03c-.25-.25-.38-.56-.38-.93s.13-.68.38-.93.56-.38.93-.38.65.13.9.38c.25.25.37.56.37.93s-.12.68-.37.93c-.25.25-.55.38-.9.38s-.68-.13-.93-.38ZM322.64,136.3v11.6h-1.93v-11.6h1.93Z"/>
        <path class="cls-4" d="M328.27,137.88v6.84c0,.56.12.96.36,1.2.24.23.66.35,1.25.35h1.42v1.63h-1.74c-1.07,0-1.88-.25-2.41-.74-.54-.49-.8-1.3-.8-2.43v-6.84h-1.5v-1.59h1.5v-2.92h1.93v2.92h3.03v1.59h-3.03Z"/>
        <path class="cls-4" d="M344.14,142.81h-9.27c.07,1.14.46,2.04,1.17,2.68.71.64,1.58.96,2.59.96.83,0,1.53-.19,2.08-.58.56-.39.95-.91,1.17-1.56h2.07c-.31,1.12-.93,2.02-1.86,2.72-.93.7-2.09,1.05-3.47,1.05-1.1,0-2.08-.25-2.95-.74-.87-.49-1.55-1.2-2.04-2.11-.49-.91-.74-1.96-.74-3.16s.24-2.25.72-3.15c.48-.9,1.15-1.6,2.02-2.08.87-.49,1.87-.73,2.99-.73s2.07.24,2.92.72,1.5,1.14,1.96,1.98c.46.84.69,1.79.69,2.85,0,.37-.02.76-.06,1.16ZM341.73,139.35c-.33-.53-.77-.93-1.32-1.21-.56-.28-1.17-.41-1.85-.41-.97,0-1.8.31-2.49.93s-1.08,1.48-1.17,2.58h7.32c0-.73-.16-1.37-.49-1.89Z"/>
        <path class="cls-4" d="M346.74,138.93c.48-.9,1.14-1.59,1.98-2.08s1.78-.74,2.83-.74c.9,0,1.74.21,2.52.62.78.42,1.37.96,1.78,1.64v-6.14h1.95v15.66h-1.95v-2.18c-.38.69-.95,1.26-1.69,1.7s-1.62.67-2.62.67-1.96-.25-2.8-.76-1.5-1.22-1.98-2.14c-.48-.92-.72-1.96-.72-3.13s.24-2.23.72-3.12ZM355.31,139.79c-.35-.65-.83-1.15-1.43-1.49-.6-.35-1.26-.52-1.98-.52s-1.38.17-1.97.51c-.59.34-1.07.83-1.42,1.48-.35.65-.53,1.41-.53,2.29s.18,1.66.53,2.32c.35.66.83,1.16,1.42,1.5.59.35,1.25.52,1.97.52s1.38-.17,1.98-.52,1.08-.85,1.43-1.5c.35-.66.53-1.42.53-2.3s-.18-1.64-.53-2.29Z"/>
      </g>
    </g>
  </g>
</svg>